<svg id="kity_svg_6" xmlns="http://www.w3.org/2000/svg" xmlns:xlink="http://www.w3.org/1999/xlink" version="1.1" width="2401" height="763" style="background: rgb(251, 251, 251); visibility: visible;" viewBox="0 0 2401 763"><defs id="kity_defs_7"><linearGradient id="kity_linearGradient_17" x1="0" y1="0" x2="0" y2="1"><stop id="kity_stop_18" offset="0" stop-color="rgb(255, 255, 255)"></stop><stop id="kity_stop_19" offset="1" stop-color="rgb(204, 204, 204)"></stop></linearGradient><marker id="kity_marker_2" orient="auto" refX="6" refY="0" viewBox="-7 -7 14 14" markerWidth="7" markerHeight="7" markerUnits="userSpaceOnUse"><path id="kity_path_3" fill="rgb(115, 161, 191)" stroke="none" d="M6,0A6,6,0,1,1,-6,0A6,6,0,1,1,6,0"></path></marker></defs><g id="kity_g_8"><g id="minder1" text-rendering="optimize-speed"><g id="minder_connect_group1"><path id="kity_path_31" fill="none" stroke="rgb(115, 161, 191)" stroke-width="1" d="M1198,343.5A268.5,287,0,0,1,1466.5,56.5"></path><path id="kity_path_33" fill="none" stroke="rgb(115, 161, 191)" stroke-width="1" d="M1579.5,56.5C1630.5,56.5,1630.5,56.5,1681.5,56.5L1811.5,56.5"></path><path id="kity_path_35" fill="none" stroke="rgb(115, 161, 191)" stroke-width="1" d="M1198,343.5A379.5,230,0,0,0,1577.5,573.5"></path><path id="kity_path_37" fill="none" stroke="rgb(115, 161, 191)" stroke-width="1" d="M1683.5,573.5C1698.5,573.5,1698.5,431.5,1713.5,431.5L1890.5,431.5"></path><path id="kity_path_39" fill="none" stroke="rgb(115, 161, 191)" stroke-width="1" d="M1683.5,573.5C1698.5,573.5,1698.5,483.5,1713.5,483.5L1873.5,483.5"></path><path id="kity_path_41" fill="none" stroke="rgb(115, 161, 191)" stroke-width="1" d="M1683.5,573.5C1698.5,573.5,1698.5,535.5,1713.5,535.5L1947.5,535.5"></path><path id="kity_path_43" fill="none" stroke="rgb(115, 161, 191)" stroke-width="1" d="M1683.5,573.5C1698.5,573.5,1698.5,587.5,1713.5,587.5L1934.5,587.5"></path><path id="kity_path_45" fill="none" stroke="rgb(115, 161, 191)" stroke-width="1" d="M1683.5,573.5C1698.5,573.5,1698.5,639.5,1713.5,639.5L1903.5,639.5"></path><path id="kity_path_47" fill="none" stroke="rgb(115, 161, 191)" stroke-width="1" d="M1683.5,573.5C1698.5,573.5,1698.5,691.5,1713.5,691.5L1813.5,691.5"></path><path id="kity_path_49" fill="none" stroke="rgb(115, 161, 191)" stroke-width="1" d="M1683.5,573.5C1698.5,573.5,1698.5,743.5,1713.5,743.5L2381.5,743.5"></path><path id="kity_path_51" fill="none" stroke="rgb(115, 161, 191)" stroke-width="1" d="M1198,343.5A96.5,193,0,0,0,1101.5,150.5"></path><path id="kity_path_53" fill="none" stroke="rgb(115, 161, 191)" stroke-width="1" d="M1012.5,150.5C984.5,150.5,984.5,45.5,956.5,45.5L743.5,45.5"></path><path id="kity_path_55" fill="none" stroke="rgb(115, 161, 191)" stroke-width="1" d="M1012.5,150.5C997.5,150.5,997.5,112.5,982.5,112.5L700.5,112.5"></path><path id="kity_path_57" fill="none" stroke="rgb(115, 161, 191)" stroke-width="1" d="M1012.5,150.5C997.5,150.5,997.5,164.5,982.5,164.5L568.5,164.5"></path><path id="kity_path_59" fill="none" stroke="rgb(115, 161, 191)" stroke-width="1" d="M1012.5,150.5C997.5,150.5,997.5,216.5,982.5,216.5L408.5,216.5"></path><path id="kity_path_61" fill="none" stroke="rgb(115, 161, 191)" stroke-width="1" d="M1012.5,150.5C997.5,150.5,997.5,268.5,982.5,268.5L20.5,268.5"></path><path id="kity_path_63" fill="none" stroke="rgb(115, 161, 191)" stroke-width="1" d="M1198,343.5A268.5,84,0,0,1,1466.5,259.5"></path><path id="kity_path_65" fill="none" stroke="rgb(115, 161, 191)" stroke-width="1" d="M1589.5,259.5C1664.5,259.5,1664.5,213.5,1739.5,213.5L1799.5,213.5"></path><path id="kity_path_67" fill="none" stroke="rgb(115, 161, 191)" stroke-width="1" d="M1799.5,213.5C1815,213.5,1815,157.5,1830.5,157.5L2003.5,157.5"></path><path id="kity_path_69" fill="none" stroke="rgb(115, 161, 191)" stroke-width="1" d="M1799.5,213.5C1828.5,213.5,1828.5,204.5,1857.5,204.5L1947.5,204.5"></path><path id="kity_path_71" fill="none" stroke="rgb(115, 161, 191)" stroke-width="1" d="M1589.5,259.5C1663.5,259.5,1663.5,292.5,1737.5,292.5L1790.5,292.5"></path><path id="kity_path_73" fill="none" stroke="rgb(115, 161, 191)" stroke-width="1" d="M1790.5,292.5C1805.5,292.5,1805.5,240.5,1820.5,240.5L1947.5,240.5"></path><path id="kity_path_75" fill="none" stroke="rgb(115, 161, 191)" stroke-width="1" d="M1790.5,292.5C1805.5,292.5,1805.5,292.5,1820.5,292.5L1900.5,292.5"></path><path id="kity_path_77" fill="none" stroke="rgb(115, 161, 191)" stroke-width="1" d="M1790.5,292.5C1805.5,292.5,1805.5,344.5,1820.5,344.5L1912.5,344.5"></path></g><g id="minder_node1"><path id="node_outline1" fill="rgb(115, 161, 191)" stroke="rgb(115, 161, 191)" d="M1164.5,323.5h67a5,5,0,0,1,5,5v30a5,5,0,0,1,-5,5h-67a5,5,0,0,1,-5,-5v-30a5,5,0,0,1,5,-5z" stroke-width="3"></path><g id="node_text1" fill="white"><text id="kity_text_22" text-rendering="inherit" font-size="16" dy=".8em" y="335.5" x="1183.5">ES6&#xa0;</text></g></g><g id="kity_g_12"><path id="kity_path_13" fill="none" stroke="none" d="M1183.5,343.5h0v0h0z"></path></g><g id="kity_g_14"><path id="kity_path_15" fill="none" stroke="none" d="M1183.5,343.5h0v0h0z"></path><path id="kity_path_16" fill="none" stroke="none"></path></g><g id="minder_node2"><g id="node_expander2" style="cursor: pointer;"><path id="kity_path_154" fill="white" stroke="gray" d="M1467.5,56.5A6,6,0,1,1,1455.5,56.5A6,6,0,1,1,1467.5,56.5"></path><path id="kity_path_155" fill="none" stroke="gray" d="M1457,56.5L1466,56.5"></path></g><path id="node_outline3" fill="rgb(238, 243, 246)" stroke="rgb(115, 161, 191)" d="M1471.5,43.5h105a3,3,0,0,1,3,3v20a3,3,0,0,1,-3,3h-105a3,3,0,0,1,-3,-3v-20a3,3,0,0,1,3,-3z" stroke-width="1"></path><g id="node_text3" fill="black"><text id="kity_text_81" text-rendering="inherit" font-size="14" dy=".8em" y="49.5" x="1488.5">let &amp; const</text></g></g><g id="minder_node3"><g id="node_expander1" display="none" style="cursor: pointer;"><path id="kity_path_151" fill="white" stroke="gray" d="M1691.5,42.5A6,6,0,1,1,1679.5,42.5A6,6,0,1,1,1691.5,42.5"></path><path id="kity_path_152" fill="none" stroke="gray"></path></g><path id="node_outline2" fill="none" stroke="none" d="M1696.5,31.5h110a5,5,0,0,1,5,5v12a5,5,0,0,1,-5,5h-110a5,5,0,0,1,-5,-5v-12a5,5,0,0,1,5,-5z"></path><g id="node_text2" fill="black"><text id="kity_text_79" text-rendering="inherit" font-size="12" dy=".8em" y="36.5" x="1701.5">块级作用域 =&gt; TDZ</text></g></g><g id="minder_node4"><g id="node_expander10" style="cursor: pointer;"><path id="kity_path_178" fill="white" stroke="gray" d="M1578.5,573.5A6,6,0,1,1,1566.5,573.5A6,6,0,1,1,1578.5,573.5"></path><path id="kity_path_179" fill="none" stroke="gray" d="M1568,573.5L1577,573.5"></path></g><path id="node_outline11" fill="rgb(238, 243, 246)" stroke="rgb(115, 161, 191)" d="M1582.5,560.5h98a3,3,0,0,1,3,3v20a3,3,0,0,1,-3,3h-98a3,3,0,0,1,-3,-3v-20a3,3,0,0,1,3,-3z" stroke-width="1"></path><g id="node_text11" fill="black"><text id="kity_text_97" text-rendering="inherit" font-size="14" dy=".8em" y="566.5" x="1599.5">Functions</text></g></g><g id="minder_node5"><g id="node_expander3" display="none" style="cursor: pointer;"><path id="kity_path_157" fill="white" stroke="gray" d="M1723.5,417.5A6,6,0,1,1,1711.5,417.5A6,6,0,1,1,1723.5,417.5"></path><path id="kity_path_158" fill="none" stroke="gray"></path></g><path id="node_outline4" fill="none" stroke="none" d="M1728.5,406.5h157a5,5,0,0,1,5,5v12a5,5,0,0,1,-5,5h-157a5,5,0,0,1,-5,-5v-12a5,5,0,0,1,5,-5z"></path><g id="node_text4" fill="black"><text id="kity_text_83" text-rendering="inherit" font-size="12" dy=".8em" y="411.5" x="1733.5">default parameter values</text></g></g><g id="minder_node6"><g id="node_expander4" display="none" style="cursor: pointer;"><path id="kity_path_160" fill="white" stroke="gray" d="M1723.5,469.5A6,6,0,1,1,1711.5,469.5A6,6,0,1,1,1723.5,469.5"></path><path id="kity_path_161" fill="none" stroke="gray"></path></g><path id="node_outline5" fill="none" stroke="none" d="M1728.5,458.5h140a5,5,0,0,1,5,5v12a5,5,0,0,1,-5,5h-140a5,5,0,0,1,-5,-5v-12a5,5,0,0,1,5,-5z"></path><g id="node_text5" fill="black"><text id="kity_text_85" text-rendering="inherit" font-size="12" dy=".8em" y="463.5" x="1733.5">parameter expressions</text></g></g><g id="minder_node7"><g id="node_expander5" display="none" style="cursor: pointer;"><path id="kity_path_163" fill="white" stroke="gray" d="M1723.5,521.5A6,6,0,1,1,1711.5,521.5A6,6,0,1,1,1723.5,521.5"></path><path id="kity_path_164" fill="none" stroke="gray"></path></g><path id="node_outline6" fill="none" stroke="none" d="M1728.5,510.5h214a5,5,0,0,1,5,5v12a5,5,0,0,1,-5,5h-214a5,5,0,0,1,-5,-5v-12a5,5,0,0,1,5,-5z"></path><g id="node_text6" fill="black"><text id="kity_text_87" text-rendering="inherit" font-size="12" dy=".8em" y="515.5" x="1733.5">ES5的arguments =&gt; rest parameters</text></g></g><g id="minder_node8"><g id="node_expander6" display="none" style="cursor: pointer;"><path id="kity_path_166" fill="white" stroke="gray" d="M1723.5,573.5A6,6,0,1,1,1711.5,573.5A6,6,0,1,1,1723.5,573.5"></path><path id="kity_path_167" fill="none" stroke="gray"></path></g><path id="node_outline7" fill="none" stroke="none" d="M1728.5,562.5h201a5,5,0,0,1,5,5v12a5,5,0,0,1,-5,5h-201a5,5,0,0,1,-5,-5v-12a5,5,0,0,1,5,-5z"></path><g id="node_text7" fill="black"><text id="kity_text_89" text-rendering="inherit" font-size="12" dy=".8em" y="567.5" x="1733.5">The Spread Operator(将数组分割)</text></g></g><g id="minder_node9"><g id="node_expander7" display="none" style="cursor: pointer;"><path id="kity_path_169" fill="white" stroke="gray" d="M1723.5,625.5A6,6,0,1,1,1711.5,625.5A6,6,0,1,1,1723.5,625.5"></path><path id="kity_path_170" fill="none" stroke="gray"></path></g><path id="node_outline8" fill="none" stroke="none" d="M1728.5,614.5h170a5,5,0,0,1,5,5v12a5,5,0,0,1,-5,5h-170a5,5,0,0,1,-5,-5v-12a5,5,0,0,1,5,-5z"></path><g id="node_text8" fill="black"><text id="kity_text_91" text-rendering="inherit" font-size="12" dy=".8em" y="619.5" x="1733.5">ES6 function name property</text></g></g><g id="minder_node10"><g id="node_expander8" display="none" style="cursor: pointer;"><path id="kity_path_172" fill="white" stroke="gray" d="M1723.5,677.5A6,6,0,1,1,1711.5,677.5A6,6,0,1,1,1723.5,677.5"></path><path id="kity_path_173" fill="none" stroke="gray"></path></g><path id="node_outline9" fill="none" stroke="none" d="M1728.5,666.5h80a5,5,0,0,1,5,5v12a5,5,0,0,1,-5,5h-80a5,5,0,0,1,-5,-5v-12a5,5,0,0,1,5,-5z"></path><g id="node_text9" fill="black"><text id="kity_text_93" text-rendering="inherit" font-size="12" dy=".8em" y="671.5" x="1733.5">ES6 块级函数</text></g></g><g id="minder_node11"><g id="node_expander9" display="none" style="cursor: pointer;"><path id="kity_path_175" fill="white" stroke="gray" d="M1723.5,729.5A6,6,0,1,1,1711.5,729.5A6,6,0,1,1,1723.5,729.5"></path><path id="kity_path_176" fill="none" stroke="gray"></path></g><path id="node_outline10" fill="none" stroke="none" d="M1728.5,718.5h648a5,5,0,0,1,5,5v12a5,5,0,0,1,-5,5h-648a5,5,0,0,1,-5,-5v-12a5,5,0,0,1,5,-5z"></path><g id="node_text10" fill="black"><text id="kity_text_95" text-rendering="inherit" font-size="12" dy=".8em" y="723.5" x="1733.5">箭头函数（no this binding;箭头函数内部this只能通过查找作用域链，没arguments绑定，没有自己arguments对象，）</text></g></g><g id="minder_node12"><g id="node_expander16" style="cursor: pointer;"><path id="kity_path_196" fill="white" stroke="gray" d="M1112.5,150.5A6,6,0,1,1,1100.5,150.5A6,6,0,1,1,1112.5,150.5"></path><path id="kity_path_197" fill="none" stroke="gray" d="M1102,150.5L1111,150.5"></path></g><path id="node_outline17" fill="rgb(238, 243, 246)" stroke="rgb(115, 161, 191)" d="M1015.5,137.5h81a3,3,0,0,1,3,3v20a3,3,0,0,1,-3,3h-81a3,3,0,0,1,-3,-3v-20a3,3,0,0,1,3,-3z" stroke-width="1"></path><g id="node_text17" fill="black"><text id="kity_text_109" text-rendering="inherit" font-size="14" dy=".8em" y="143.5" x="1032.5">Object</text></g></g><g id="minder_node13"><g id="node_expander11" display="none" style="cursor: pointer;"><path id="kity_path_181" fill="white" stroke="gray" d="M958.5,31.5A6,6,0,1,1,946.5,31.5A6,6,0,1,1,958.5,31.5"></path><path id="kity_path_182" fill="none" stroke="gray"></path></g><path id="node_outline12" fill="none" stroke="none" d="M748.5,20.5h193a5,5,0,0,1,5,5v12a5,5,0,0,1,-5,5h-193a5,5,0,0,1,-5,-5v-12a5,5,0,0,1,5,-5z"></path><g id="node_text12" fill="black"><text id="kity_text_99" text-rendering="inherit" font-size="12" dy=".8em" y="25.5" x="753.5">对象字面量 （属性名，方法）简写</text></g></g><g id="minder_node14"><g id="node_expander12" display="none" style="cursor: pointer;"><path id="kity_path_184" fill="white" stroke="gray" d="M984.5,98.5A6,6,0,1,1,972.5,98.5A6,6,0,1,1,984.5,98.5"></path><path id="kity_path_185" fill="none" stroke="gray"></path></g><path id="node_outline13" fill="none" stroke="none" d="M705.5,87.5h262a5,5,0,0,1,5,5v12a5,5,0,0,1,-5,5h-262a5,5,0,0,1,-5,-5v-12a5,5,0,0,1,5,-5z"></path><g id="node_text13" fill="black"><text id="kity_text_101" text-rendering="inherit" font-size="12" dy=".8em" y="92.5" x="710.5">属性名可以为常量，变量，expression，中括号</text></g></g><g id="minder_node15"><g id="node_expander13" display="none" style="cursor: pointer;"><path id="kity_path_187" fill="white" stroke="gray" d="M984.5,150.5A6,6,0,1,1,972.5,150.5A6,6,0,1,1,984.5,150.5"></path><path id="kity_path_188" fill="none" stroke="gray"></path></g><path id="node_outline14" fill="none" stroke="none" d="M573.5,139.5h394a5,5,0,0,1,5,5v12a5,5,0,0,1,-5,5h-394a5,5,0,0,1,-5,-5v-12a5,5,0,0,1,5,-5z"></path><g id="node_text14" fill="black"><text id="kity_text_103" text-rendering="inherit" font-size="12" dy=".8em" y="144.5" x="578.5">Object.is()弥补严格相等运算符+0 === -0 true，而Object.is() 认为false</text></g></g><g id="minder_node16"><g id="node_expander14" display="none" style="cursor: pointer;"><path id="kity_path_190" fill="white" stroke="gray" d="M984.5,202.5A6,6,0,1,1,972.5,202.5A6,6,0,1,1,984.5,202.5"></path><path id="kity_path_191" fill="none" stroke="gray"></path></g><path id="node_outline15" fill="none" stroke="none" d="M413.5,191.5h554a5,5,0,0,1,5,5v12a5,5,0,0,1,-5,5h-554a5,5,0,0,1,-5,-5v-12a5,5,0,0,1,5,-5z"></path><g id="node_text15" fill="black"><text id="kity_text_105" text-rendering="inherit" font-size="12" dy=".8em" y="196.5" x="418.5">由ES5 Mixin =&gt; Object.assign()接收任意数量的源对象，但不会将源对象的访问器属性复制到接收对象</text></g></g><g id="minder_node17"><g id="node_expander15" display="none" style="cursor: pointer;"><path id="kity_path_193" fill="white" stroke="gray" d="M984.5,254.5A6,6,0,1,1,972.5,254.5A6,6,0,1,1,984.5,254.5"></path><path id="kity_path_194" fill="none" stroke="gray"></path></g><path id="node_outline16" fill="none" stroke="none" d="M25.5,243.5h942a5,5,0,0,1,5,5v12a5,5,0,0,1,-5,5h-942a5,5,0,0,1,-5,-5v-12a5,5,0,0,1,5,-5z"></path><g id="node_text16" fill="black"><text id="kity_text_107" text-rendering="inherit" font-size="12" dy=".8em" y="248.5" x="30.5">Object.getOwnPropertyNames() 自由属性的枚举顺序；1.数字类型键，按升序排列 2. 字符串类型、符号类型按添加到对象的顺序排列； Object.keys(), JSON.stringify()同样</text></g></g><g id="minder_node18"><g id="node_expander24" style="cursor: pointer;"><path id="kity_path_220" fill="white" stroke="gray" d="M1602.5,259.5A6,6,0,1,1,1590.5,259.5A6,6,0,1,1,1602.5,259.5"></path><path id="kity_path_221" fill="none" stroke="gray" d="M1592,259.5L1601,259.5"></path></g><path id="node_outline25" fill="rgb(238, 243, 246)" stroke="rgb(115, 161, 191)" d="M1471.5,246.5h115a3,3,0,0,1,3,3v20a3,3,0,0,1,-3,3h-115a3,3,0,0,1,-3,-3v-20a3,3,0,0,1,3,-3z" stroke-width="1"></path><g id="node_text25" fill="black"><text id="kity_text_125" text-rendering="inherit" font-size="14" dy=".8em" y="252.5" x="1488.5">Reg &amp; String</text></g></g><g id="minder_node19"><g id="node_expander19" style="cursor: pointer;"><path id="kity_path_205" fill="white" stroke="gray" d="M1749.5,199.5A6,6,0,1,1,1737.5,199.5A6,6,0,1,1,1749.5,199.5"></path><path id="kity_path_206" fill="none" stroke="gray" d="M1739,199.5L1748,199.5"></path></g><path id="node_outline20" fill="none" stroke="none" d="M1754.5,188.5h40a5,5,0,0,1,5,5v12a5,5,0,0,1,-5,5h-40a5,5,0,0,1,-5,-5v-12a5,5,0,0,1,5,-5z"></path><g id="node_text20" fill="black"><text id="kity_text_115" text-rendering="inherit" font-size="12" dy=".8em" y="193.5" x="1759.5">string</text></g></g><g id="minder_node20"><g id="node_expander17" display="none" style="cursor: pointer;"><path id="kity_path_199" fill="white" stroke="gray" d="M1840.5,143.5A6,6,0,1,1,1828.5,143.5A6,6,0,1,1,1840.5,143.5"></path><path id="kity_path_200" fill="none" stroke="gray"></path></g><path id="node_outline18" fill="none" stroke="none" d="M1845.5,132.5h153a5,5,0,0,1,5,5v12a5,5,0,0,1,-5,5h-153a5,5,0,0,1,-5,-5v-12a5,5,0,0,1,5,-5z"></path><g id="node_text18" fill="black"><text id="kity_text_111" text-rendering="inherit" font-size="12" dy=".8em" y="137.5" x="1850.5">string.prototype.repeat()</text></g></g><g id="minder_node21"><g id="node_expander18" display="none" style="cursor: pointer;"><path id="kity_path_202" fill="white" stroke="gray" d="M1867.5,190.5A6,6,0,1,1,1855.5,190.5A6,6,0,1,1,1867.5,190.5"></path><path id="kity_path_203" fill="none" stroke="gray"></path></g><path id="node_outline19" fill="none" stroke="none" d="M1872.5,179.5h70a5,5,0,0,1,5,5v12a5,5,0,0,1,-5,5h-70a5,5,0,0,1,-5,-5v-12a5,5,0,0,1,5,-5z"></path><g id="node_text19" fill="black"><text id="kity_text_113" text-rendering="inherit" font-size="12" dy=".8em" y="184.5" x="1877.5">模板字符串</text></g></g><g id="minder_node22"><g id="node_expander23" style="cursor: pointer;"><path id="kity_path_217" fill="white" stroke="gray" d="M1747.5,278.5A6,6,0,1,1,1735.5,278.5A6,6,0,1,1,1747.5,278.5"></path><path id="kity_path_218" fill="none" stroke="gray" d="M1737,278.5L1746,278.5"></path></g><path id="node_outline24" fill="none" stroke="none" d="M1752.5,267.5h33a5,5,0,0,1,5,5v12a5,5,0,0,1,-5,5h-33a5,5,0,0,1,-5,-5v-12a5,5,0,0,1,5,-5z"></path><g id="node_text24" fill="black"><text id="kity_text_123" text-rendering="inherit" font-size="12" dy=".8em" y="272.5" x="1757.5">Reg</text></g></g><g id="minder_node23"><g id="node_expander20" display="none" style="cursor: pointer;"><path id="kity_path_208" fill="white" stroke="gray" d="M1830.5,226.5A6,6,0,1,1,1818.5,226.5A6,6,0,1,1,1830.5,226.5"></path><path id="kity_path_209" fill="none" stroke="gray"></path></g><path id="node_outline21" fill="none" stroke="none" d="M1835.5,215.5h107a5,5,0,0,1,5,5v12a5,5,0,0,1,-5,5h-107a5,5,0,0,1,-5,-5v-12a5,5,0,0,1,5,-5z"></path><g id="node_text21" fill="black"><text id="kity_text_117" text-rendering="inherit" font-size="12" dy=".8em" y="220.5" x="1840.5">new Reg(re1, 'g')</text></g></g><g id="minder_node24"><g id="node_expander21" display="none" style="cursor: pointer;"><path id="kity_path_211" fill="white" stroke="gray" d="M1830.5,278.5A6,6,0,1,1,1818.5,278.5A6,6,0,1,1,1830.5,278.5"></path><path id="kity_path_212" fill="none" stroke="gray"></path></g><path id="node_outline22" fill="none" stroke="none" d="M1835.5,267.5h60a5,5,0,0,1,5,5v12a5,5,0,0,1,-5,5h-60a5,5,0,0,1,-5,-5v-12a5,5,0,0,1,5,-5z"></path><g id="node_text22" fill="black"><text id="kity_text_119" text-rendering="inherit" font-size="12" dy=".8em" y="272.5" x="1840.5">reg.flags</text></g></g><g id="minder_node25"><g id="node_expander22" display="none" style="cursor: pointer;"><path id="kity_path_214" fill="white" stroke="gray" d="M1830.5,330.5A6,6,0,1,1,1818.5,330.5A6,6,0,1,1,1830.5,330.5"></path><path id="kity_path_215" fill="none" stroke="gray"></path></g><path id="node_outline23" fill="none" stroke="none" d="M1835.5,319.5h72a5,5,0,0,1,5,5v12a5,5,0,0,1,-5,5h-72a5,5,0,0,1,-5,-5v-12a5,5,0,0,1,5,-5z"></path><g id="node_text23" fill="black"><text id="kity_text_121" text-rendering="inherit" font-size="12" dy=".8em" y="324.5" x="1840.5">reg.source</text></g></g></g></g></svg>