<svg id="kity_svg_6" xmlns="http://www.w3.org/2000/svg" xmlns:xlink="http://www.w3.org/1999/xlink" version="1.1" width="1152" height="735" style="background: rgb(251, 251, 251); visibility: visible;" viewBox="0 0 1152 735"><defs id="kity_defs_7"><linearGradient id="kity_linearGradient_17" x1="0" y1="0" x2="0" y2="1"><stop id="kity_stop_18" offset="0" stop-color="rgb(255, 255, 255)"></stop><stop id="kity_stop_19" offset="1" stop-color="rgb(204, 204, 204)"></stop></linearGradient><marker id="kity_marker_2" orient="auto" refX="6" refY="0" viewBox="-7 -7 14 14" markerWidth="7" markerHeight="7" markerUnits="userSpaceOnUse"><path id="kity_path_3" fill="rgb(115, 161, 191)" stroke="none" d="M6,0A6,6,0,1,1,-6,0A6,6,0,1,1,6,0"></path></marker></defs><g id="kity_g_8"><g id="minder1" text-rendering="optimize-speed"><g id="minder_connect_group1"><path id="kity_path_31" fill="none" stroke="rgb(115, 161, 191)" stroke-width="1" d="M59,332.5A268.5,287,0,0,1,327.5,45.5"></path><path id="kity_path_35" fill="none" stroke="rgb(115, 161, 191)" stroke-width="1" d="M59,332.5A269.5,213,0,0,0,328.5,545.5"></path><path id="kity_path_47" fill="none" stroke="rgb(115, 161, 191)" stroke-width="1" d="M59,332.5A259.5,92,0,0,1,318.5,240.5"></path><path id="kity_path_174" fill="none" stroke="rgb(115, 161, 191)" stroke-width="1" d="M434.5,545.5C449.5,545.5,449.5,403.5,464.5,403.5L641.5,403.5"></path><path id="kity_path_175" fill="none" stroke="rgb(115, 161, 191)" stroke-width="1" d="M434.5,545.5C449.5,545.5,449.5,455.5,464.5,455.5L624.5,455.5"></path><path id="kity_path_176" fill="none" stroke="rgb(115, 161, 191)" stroke-width="1" d="M434.5,545.5C449.5,545.5,449.5,507.5,464.5,507.5L698.5,507.5"></path><path id="kity_path_177" fill="none" stroke="rgb(115, 161, 191)" stroke-width="1" d="M434.5,545.5C449.5,545.5,449.5,559.5,464.5,559.5L685.5,559.5"></path><path id="kity_path_178" fill="none" stroke="rgb(115, 161, 191)" stroke-width="1" d="M434.5,545.5C449.5,545.5,449.5,611.5,464.5,611.5L654.5,611.5"></path><path id="kity_path_179" fill="none" stroke="rgb(115, 161, 191)" stroke-width="1" d="M434.5,545.5C449.5,545.5,449.5,663.5,464.5,663.5L564.5,663.5"></path><path id="kity_path_180" fill="none" stroke="rgb(115, 161, 191)" stroke-width="1" d="M434.5,545.5C449.5,545.5,449.5,715.5,464.5,715.5L1132.5,715.5"></path><path id="kity_path_188" fill="none" stroke="rgb(115, 161, 191)" stroke-width="1" d="M651.5,194.5C667,194.5,667,138.5,682.5,138.5L855.5,138.5"></path><path id="kity_path_189" fill="none" stroke="rgb(115, 161, 191)" stroke-width="1" d="M651.5,194.5C680.5,194.5,680.5,185.5,709.5,185.5L799.5,185.5"></path><path id="kity_path_190" fill="none" stroke="rgb(115, 161, 191)" stroke-width="1" d="M441.5,240.5C516.5,240.5,516.5,194.5,591.5,194.5L651.5,194.5"></path><path id="kity_path_191" fill="none" stroke="rgb(115, 161, 191)" stroke-width="1" d="M642.5,273.5C657.5,273.5,657.5,221.5,672.5,221.5L799.5,221.5"></path><path id="kity_path_192" fill="none" stroke="rgb(115, 161, 191)" stroke-width="1" d="M642.5,273.5C657.5,273.5,657.5,273.5,672.5,273.5L752.5,273.5"></path><path id="kity_path_193" fill="none" stroke="rgb(115, 161, 191)" stroke-width="1" d="M642.5,273.5C657.5,273.5,657.5,325.5,672.5,325.5L764.5,325.5"></path><path id="kity_path_194" fill="none" stroke="rgb(115, 161, 191)" stroke-width="1" d="M441.5,240.5C515.5,240.5,515.5,273.5,589.5,273.5L642.5,273.5"></path><path id="kity_path_195" fill="none" stroke="rgb(115, 161, 191)" stroke-width="1" d="M440.5,45.5C491.5,45.5,491.5,45.5,542.5,45.5L672.5,45.5"></path></g><g id="minder_node1"><path id="node_outline1" fill="rgb(115, 161, 191)" stroke="rgb(115, 161, 191)" d="M25.5,312.5h67a5,5,0,0,1,5,5v30a5,5,0,0,1,-5,5h-67a5,5,0,0,1,-5,-5v-30a5,5,0,0,1,5,-5z" stroke-width="3"></path><g id="node_text1" fill="white"><text id="kity_text_22" text-rendering="inherit" font-size="16" dy=".8em" y="324.5" x="44.5">ES6&#xa0;</text></g></g><g id="kity_g_12" display="none"><path id="kity_path_13" fill="none" stroke="none" d="M44.5,332.5h0v0h0z"></path></g><g id="kity_g_14" display="none"><path id="kity_path_15" fill="none" stroke="none" d="M44.5,332.5h0v0h0z"></path><path id="kity_path_16" fill="none" stroke="none"></path></g><g id="minder_node2" opacity="1"><g id="node_expander2" style="cursor: pointer;"><path id="kity_path_114" fill="white" stroke="gray" d="M328.5,45.5A6,6,0,1,1,316.5,45.5A6,6,0,1,1,328.5,45.5"></path><path id="kity_path_115" fill="none" stroke="gray" d="M318,45.5L327,45.5"></path></g><path id="node_outline3" fill="rgb(238, 243, 246)" stroke="rgb(115, 161, 191)" d="M332.5,32.5h105a3,3,0,0,1,3,3v20a3,3,0,0,1,-3,3h-105a3,3,0,0,1,-3,-3v-20a3,3,0,0,1,3,-3z" stroke-width="1"></path><g id="node_text3" fill="black"><text id="kity_text_65" text-rendering="inherit" font-size="14" dy=".8em" y="38.5" x="349.5">let &amp; const</text></g></g><g id="minder_node4" opacity="1"><g id="node_expander8" style="cursor: pointer;"><path id="kity_path_132" fill="white" stroke="gray" d="M329.5,545.5A6,6,0,1,1,317.5,545.5A6,6,0,1,1,329.5,545.5"></path><path id="kity_path_133" fill="none" stroke="gray" d="M319,545.5L328,545.5"></path></g><path id="node_outline9" fill="rgb(238, 243, 246)" stroke="rgb(115, 161, 191)" d="M333.5,532.5h98a3,3,0,0,1,3,3v20a3,3,0,0,1,-3,3h-98a3,3,0,0,1,-3,-3v-20a3,3,0,0,1,3,-3z" stroke-width="1"></path><g id="node_text9" fill="black"><text id="kity_text_77" text-rendering="inherit" font-size="14" dy=".8em" y="538.5" x="350.5">Functions</text></g></g><g id="minder_node10" opacity="1"><g id="node_expander16" style="cursor: pointer;"><path id="kity_path_156" fill="white" stroke="gray" d="M454.5,240.5A6,6,0,1,1,442.5,240.5A6,6,0,1,1,454.5,240.5"></path><path id="kity_path_157" fill="none" stroke="gray" d="M444,240.5L453,240.5"></path></g><path id="node_outline17" fill="rgb(238, 243, 246)" stroke="rgb(115, 161, 191)" d="M323.5,227.5h115a3,3,0,0,1,3,3v20a3,3,0,0,1,-3,3h-115a3,3,0,0,1,-3,-3v-20a3,3,0,0,1,3,-3z" stroke-width="1"></path><g id="node_text17" fill="black"><text id="kity_text_93" text-rendering="inherit" font-size="14" dy=".8em" y="233.5" x="340.5">Reg &amp; String</text></g></g><g id="minder_node5"><g id="node_expander3" style="cursor: pointer;" display="none"><path id="kity_path_117" fill="white" stroke="gray" d="M474.5,389.5A6,6,0,1,1,462.5,389.5A6,6,0,1,1,474.5,389.5"></path><path id="kity_path_118" fill="none" stroke="gray"></path></g><path id="node_outline4" fill="none" stroke="none" d="M479.5,378.5h157a5,5,0,0,1,5,5v12a5,5,0,0,1,-5,5h-157a5,5,0,0,1,-5,-5v-12a5,5,0,0,1,5,-5z" stroke-width="3"></path><g id="node_text4" fill="black"><text id="kity_text_67" text-rendering="inherit" font-size="12" dy=".8em" y="383.5" x="484.5">default parameter values</text></g></g><g id="minder_node6"><g id="node_expander4" style="cursor: pointer;" display="none"><path id="kity_path_120" fill="white" stroke="gray" d="M474.5,441.5A6,6,0,1,1,462.5,441.5A6,6,0,1,1,474.5,441.5"></path><path id="kity_path_121" fill="none" stroke="gray"></path></g><path id="node_outline5" fill="none" stroke="none" d="M479.5,430.5h140a5,5,0,0,1,5,5v12a5,5,0,0,1,-5,5h-140a5,5,0,0,1,-5,-5v-12a5,5,0,0,1,5,-5z" stroke-width="3"></path><g id="node_text5" fill="black"><text id="kity_text_69" text-rendering="inherit" font-size="12" dy=".8em" y="435.5" x="484.5">parameter expressions</text></g></g><g id="minder_node7"><g id="node_expander5" style="cursor: pointer;" display="none"><path id="kity_path_123" fill="white" stroke="gray" d="M474.5,493.5A6,6,0,1,1,462.5,493.5A6,6,0,1,1,474.5,493.5"></path><path id="kity_path_124" fill="none" stroke="gray"></path></g><path id="node_outline6" fill="none" stroke="none" d="M479.5,482.5h214a5,5,0,0,1,5,5v12a5,5,0,0,1,-5,5h-214a5,5,0,0,1,-5,-5v-12a5,5,0,0,1,5,-5z" stroke-width="3"></path><g id="node_text6" fill="black"><text id="kity_text_71" text-rendering="inherit" font-size="12" dy=".8em" y="487.5" x="484.5">ES5的arguments =&gt; rest parameters</text></g></g><g id="minder_node8"><g id="node_expander6" style="cursor: pointer;" display="none"><path id="kity_path_126" fill="white" stroke="gray" d="M474.5,545.5A6,6,0,1,1,462.5,545.5A6,6,0,1,1,474.5,545.5"></path><path id="kity_path_127" fill="none" stroke="gray"></path></g><path id="node_outline7" fill="none" stroke="none" d="M479.5,534.5h201a5,5,0,0,1,5,5v12a5,5,0,0,1,-5,5h-201a5,5,0,0,1,-5,-5v-12a5,5,0,0,1,5,-5z" stroke-width="3"></path><g id="node_text7" fill="black"><text id="kity_text_73" text-rendering="inherit" font-size="12" dy=".8em" y="539.5" x="484.5">The Spread Operator(将数组分割)</text></g></g><g id="minder_node9"><g id="node_expander7" style="cursor: pointer;" display="none"><path id="kity_path_129" fill="white" stroke="gray" d="M474.5,597.5A6,6,0,1,1,462.5,597.5A6,6,0,1,1,474.5,597.5"></path><path id="kity_path_130" fill="none" stroke="gray"></path></g><path id="node_outline8" fill="none" stroke="none" d="M479.5,586.5h170a5,5,0,0,1,5,5v12a5,5,0,0,1,-5,5h-170a5,5,0,0,1,-5,-5v-12a5,5,0,0,1,5,-5z" stroke-width="3"></path><g id="node_text8" fill="black"><text id="kity_text_75" text-rendering="inherit" font-size="12" dy=".8em" y="591.5" x="484.5">ES6 function name property</text></g></g><g id="minder_node18"><g id="node_expander17" style="cursor: pointer;" display="none"><path id="kity_path_164" fill="white" stroke="gray" d="M474.5,649.5A6,6,0,1,1,462.5,649.5A6,6,0,1,1,474.5,649.5"></path><path id="kity_path_165" fill="none" stroke="gray"></path></g><path id="node_outline18" fill="none" stroke="none" d="M479.5,638.5h80a5,5,0,0,1,5,5v12a5,5,0,0,1,-5,5h-80a5,5,0,0,1,-5,-5v-12a5,5,0,0,1,5,-5z" stroke-width="3"></path><g id="node_text18" fill="black"><text id="kity_text_161" text-rendering="inherit" font-size="12" dy=".8em" y="643.5" x="484.5">ES6 块级函数</text></g></g><g id="minder_node19"><g id="node_expander18" style="cursor: pointer;" display="none"><path id="kity_path_172" fill="white" stroke="gray" d="M474.5,701.5A6,6,0,1,1,462.5,701.5A6,6,0,1,1,474.5,701.5"></path><path id="kity_path_173" fill="none" stroke="gray"></path></g><path id="node_outline19" fill="none" stroke="none" d="M479.5,690.5h648a5,5,0,0,1,5,5v12a5,5,0,0,1,-5,5h-648a5,5,0,0,1,-5,-5v-12a5,5,0,0,1,5,-5z" stroke-width="3"></path><g id="node_text19" fill="black"><text id="kity_text_169" text-rendering="inherit" font-size="12" dy=".8em" y="695.5" x="484.5">箭头函数（no this binding;箭头函数内部this只能通过查找作用域链，没arguments绑定，没有自己arguments对象，）</text></g></g><g id="minder_node12"><g id="node_expander9" style="cursor: pointer;" display="none"><path id="kity_path_135" fill="white" stroke="gray" d="M692.5,124.5A6,6,0,1,1,680.5,124.5A6,6,0,1,1,692.5,124.5"></path><path id="kity_path_136" fill="none" stroke="gray"></path></g><path id="node_outline10" fill="none" stroke="none" d="M697.5,113.5h153a5,5,0,0,1,5,5v12a5,5,0,0,1,-5,5h-153a5,5,0,0,1,-5,-5v-12a5,5,0,0,1,5,-5z"></path><g id="node_text10" fill="black"><text id="kity_text_79" text-rendering="inherit" font-size="12" dy=".8em" y="118.5" x="702.5">string.prototype.repeat()</text></g></g><g id="minder_node13"><g id="node_expander10" style="cursor: pointer;" display="none"><path id="kity_path_138" fill="white" stroke="gray" d="M719.5,171.5A6,6,0,1,1,707.5,171.5A6,6,0,1,1,719.5,171.5"></path><path id="kity_path_139" fill="none" stroke="gray"></path></g><path id="node_outline11" fill="none" stroke="none" d="M724.5,160.5h70a5,5,0,0,1,5,5v12a5,5,0,0,1,-5,5h-70a5,5,0,0,1,-5,-5v-12a5,5,0,0,1,5,-5z"></path><g id="node_text11" fill="black"><text id="kity_text_81" text-rendering="inherit" font-size="12" dy=".8em" y="165.5" x="729.5">模板字符串</text></g></g><g id="minder_node11"><g id="node_expander11" style="cursor: pointer;"><path id="kity_path_141" fill="white" stroke="gray" d="M601.5,180.5A6,6,0,1,1,589.5,180.5A6,6,0,1,1,601.5,180.5"></path><path id="kity_path_142" fill="none" stroke="gray" d="M591,180.5L600,180.5"></path></g><path id="node_outline12" fill="none" stroke="none" d="M606.5,169.5h40a5,5,0,0,1,5,5v12a5,5,0,0,1,-5,5h-40a5,5,0,0,1,-5,-5v-12a5,5,0,0,1,5,-5z"></path><g id="node_text12" fill="black"><text id="kity_text_83" text-rendering="inherit" font-size="12" dy=".8em" y="174.5" x="611.5">string</text></g></g><g id="minder_node15"><g id="node_expander12" style="cursor: pointer;" display="none"><path id="kity_path_144" fill="white" stroke="gray" d="M682.5,207.5A6,6,0,1,1,670.5,207.5A6,6,0,1,1,682.5,207.5"></path><path id="kity_path_145" fill="none" stroke="gray"></path></g><path id="node_outline13" fill="none" stroke="none" d="M687.5,196.5h107a5,5,0,0,1,5,5v12a5,5,0,0,1,-5,5h-107a5,5,0,0,1,-5,-5v-12a5,5,0,0,1,5,-5z"></path><g id="node_text13" fill="black"><text id="kity_text_85" text-rendering="inherit" font-size="12" dy=".8em" y="201.5" x="692.5">new Reg(re1, 'g')</text></g></g><g id="minder_node16"><g id="node_expander13" style="cursor: pointer;" display="none"><path id="kity_path_147" fill="white" stroke="gray" d="M682.5,259.5A6,6,0,1,1,670.5,259.5A6,6,0,1,1,682.5,259.5"></path><path id="kity_path_148" fill="none" stroke="gray"></path></g><path id="node_outline14" fill="none" stroke="none" d="M687.5,248.5h60a5,5,0,0,1,5,5v12a5,5,0,0,1,-5,5h-60a5,5,0,0,1,-5,-5v-12a5,5,0,0,1,5,-5z"></path><g id="node_text14" fill="black"><text id="kity_text_87" text-rendering="inherit" font-size="12" dy=".8em" y="253.5" x="692.5">reg.flags</text></g></g><g id="minder_node17"><g id="node_expander14" style="cursor: pointer;" display="none"><path id="kity_path_150" fill="white" stroke="gray" d="M682.5,311.5A6,6,0,1,1,670.5,311.5A6,6,0,1,1,682.5,311.5"></path><path id="kity_path_151" fill="none" stroke="gray"></path></g><path id="node_outline15" fill="none" stroke="none" d="M687.5,300.5h72a5,5,0,0,1,5,5v12a5,5,0,0,1,-5,5h-72a5,5,0,0,1,-5,-5v-12a5,5,0,0,1,5,-5z"></path><g id="node_text15" fill="black"><text id="kity_text_89" text-rendering="inherit" font-size="12" dy=".8em" y="305.5" x="692.5">reg.source</text></g></g><g id="minder_node14"><g id="node_expander15" style="cursor: pointer;"><path id="kity_path_153" fill="white" stroke="gray" d="M599.5,259.5A6,6,0,1,1,587.5,259.5A6,6,0,1,1,599.5,259.5"></path><path id="kity_path_154" fill="none" stroke="gray" d="M589,259.5L598,259.5"></path></g><path id="node_outline16" fill="none" stroke="none" d="M604.5,248.5h33a5,5,0,0,1,5,5v12a5,5,0,0,1,-5,5h-33a5,5,0,0,1,-5,-5v-12a5,5,0,0,1,5,-5z"></path><g id="node_text16" fill="black"><text id="kity_text_91" text-rendering="inherit" font-size="12" dy=".8em" y="253.5" x="609.5">Reg</text></g></g><g id="minder_node3"><g id="node_expander1" style="cursor: pointer;" display="none"><path id="kity_path_111" fill="white" stroke="gray" d="M552.5,31.5A6,6,0,1,1,540.5,31.5A6,6,0,1,1,552.5,31.5"></path><path id="kity_path_112" fill="none" stroke="gray"></path></g><path id="node_outline2" fill="none" stroke="none" d="M557.5,20.5h110a5,5,0,0,1,5,5v12a5,5,0,0,1,-5,5h-110a5,5,0,0,1,-5,-5v-12a5,5,0,0,1,5,-5z"></path><g id="node_text2" fill="black"><text id="kity_text_63" text-rendering="inherit" font-size="12" dy=".8em" y="25.5" x="562.5">块级作用域 =&gt; TDZ</text></g></g></g></g></svg>